<svg width="231" height="127" viewBox="0 0 231 127" fill="none" xmlns="http://www.w3.org/2000/svg">
<path d="M115.994 125.661C150.6 125.661 178.653 97.755 178.653 63.3307C178.653 28.9064 150.6 0.999985 115.994 0.999985C81.3884 0.999985 53.3348 28.9064 53.3348 63.3307C53.3348 97.755 81.3884 125.661 115.994 125.661Z" stroke="white" stroke-width="1.51786" stroke-miterlimit="10"/>
<path d="M115.994 125.661C140.519 125.661 160.4 97.755 160.4 63.3307C160.4 28.9064 140.519 0.999985 115.994 0.999985C91.469 0.999985 71.5876 28.9064 71.5876 63.3307C71.5876 97.755 91.469 125.661 115.994 125.661Z" stroke="white" stroke-width="1.51786" stroke-miterlimit="10"/>
<path d="M115.994 125.661C130.454 125.661 142.176 97.755 142.176 63.3307C142.176 28.9064 130.454 0.999985 115.994 0.999985C101.534 0.999985 89.8121 28.9064 89.8121 63.3307C89.8121 97.755 101.534 125.661 115.994 125.661Z" stroke="white" stroke-width="1.51786" stroke-miterlimit="10"/>
<path d="M115.994 125.661C120.373 125.661 123.923 97.755 123.923 63.3307C123.923 28.9064 120.373 0.999985 115.994 0.999985C111.615 0.999985 108.066 28.9064 108.066 63.3307C108.066 97.755 111.615 125.661 115.994 125.661Z" stroke="white" stroke-width="1.51786" stroke-miterlimit="10"/>
<path d="M80.9141 11.7807H151.217" stroke="white" stroke-width="1.51786" stroke-miterlimit="10" stroke-linecap="round"/>
<path d="M61.5199 32.406H170.439" stroke="white" stroke-width="1.51786" stroke-miterlimit="10" stroke-linecap="round"/>
<path d="M61.5763 94.2265H170.382" stroke="white" stroke-width="1.51786" stroke-miterlimit="10" stroke-linecap="round"/>
<path d="M80.7428 114.852H151.217" stroke="white" stroke-width="1.51786" stroke-miterlimit="10" stroke-linecap="round"/>
<path d="M19.5544 52.3145H9.49643L1.5388 75.3887H8.34272L9.61476 70.8922H18.874L20.3235 75.3887H27.4233L19.5544 52.3145ZM11.0643 65.8632L14.2888 57.0477H14.5254L17.4836 65.8632H11.0643ZM33.9598 57.6393H39.0184C43.012 57.6393 43.6924 58.3789 43.6924 63.8516C43.6924 69.2651 43.012 70.0639 39.0184 70.0639H33.9598L33.9303 63.8516L33.9598 57.6393ZM27.7476 75.3887H39.6692C48.5143 75.3887 50.2005 73.8208 50.2005 63.8516C50.2005 53.8824 48.5143 52.3145 39.6692 52.3145H27.7476V75.3887ZM57.4866 57.6393H62.5451C66.5387 57.6393 67.2191 58.3789 67.2191 63.8516C67.2191 69.2651 66.5387 70.0639 62.5451 70.0639H57.4866L57.457 63.8516L57.4866 57.6393ZM51.2743 75.3887H63.1959C72.041 75.3887 73.7272 73.8208 73.7272 63.8516C73.7272 53.8824 72.041 52.3145 63.1959 52.3145H51.2743V75.3887ZM88.7047 75.3887H94.917V57.3435H102.046V52.3145H81.6345V57.3435H88.7047V75.3887ZM114.66 56.9885C119.778 56.9885 120.724 58.0535 120.724 63.8516C120.724 69.6497 119.778 70.7147 114.66 70.7147C109.542 70.7147 108.596 69.6497 108.596 63.8516C108.596 58.0535 109.542 56.9885 114.66 56.9885ZM102.087 63.8516C102.087 73.88 104.069 75.7437 114.66 75.7437C125.25 75.7437 127.232 73.88 127.232 63.8516C127.232 53.8232 125.25 51.9595 114.66 51.9595C104.069 51.9595 102.087 53.8232 102.087 63.8516ZM160.582 65.5969H154.074C154.133 69.916 153.216 70.7147 148.276 70.7147C143.306 70.7147 142.389 69.6497 142.389 63.8516C142.389 58.0535 143.306 56.9885 148.276 56.9885C153.216 56.9885 154.133 57.7872 154.074 62.0766H160.582C160.641 53.5569 158.718 51.9595 148.276 51.9595C137.833 51.9595 135.881 53.8232 135.881 63.8516C135.881 73.88 137.833 75.7437 148.276 75.7437C158.718 75.7437 160.641 74.1462 160.582 65.5969ZM178.619 52.3145H168.561L160.604 75.3887H167.407L168.68 70.8922H177.939L179.388 75.3887H186.488L178.619 52.3145ZM170.129 65.8632L173.354 57.0477H173.59L176.548 65.8632H170.129ZM200.598 52.3145H186.812V75.3887H193.025V67.8452H199.119C201.101 67.8452 201.722 68.496 201.722 71.0992C201.722 73.17 201.84 74.4125 202.343 75.3887H209.147V75.1224C208.2 74.0575 207.964 72.0459 207.964 69.7089C207.964 66.8986 206.632 65.9815 204.029 65.3899C207.165 64.6799 208.289 63.3783 208.289 60.6271V59.7396C208.289 53.4682 207.135 52.3145 200.598 52.3145ZM193.025 63.112V57.3435H199C201.603 57.3435 202.077 57.8464 202.077 60.1834C202.077 62.6091 201.603 63.112 199 63.112H193.025ZM216.114 75.3887H222.326V57.3435H229.455V52.3145H209.044V57.3435H216.114V75.3887Z" fill="black"/>
<path d="M19.5544 52.3145L20.3958 52.0276L20.1905 51.4256H19.5544V52.3145ZM9.49643 52.3145V51.4256H8.86269L8.65607 52.0247L9.49643 52.3145ZM1.5388 75.3887L0.69844 75.0989L0.291925 76.2776H1.5388V75.3887ZM8.34272 75.3887V76.2776H9.01506L9.19808 75.6306L8.34272 75.3887ZM9.61476 70.8922V70.0032H8.94242L8.7594 70.6502L9.61476 70.8922ZM18.874 70.8922L19.7201 70.6194L19.5214 70.0032H18.874V70.8922ZM20.3235 75.3887L19.4775 75.6614L19.6761 76.2776H20.3235V75.3887ZM27.4233 75.3887V76.2776H28.6656L28.2646 75.1018L27.4233 75.3887ZM11.0643 65.8632L10.2295 65.5578L9.79262 66.7521H11.0643V65.8632ZM14.2888 57.0477V56.1587H13.6674L13.4539 56.7423L14.2888 57.0477ZM14.5254 57.0477L15.3682 56.7649L15.1648 56.1587H14.5254V57.0477ZM17.4836 65.8632V66.7521H18.7196L18.3264 65.5804L17.4836 65.8632ZM19.5544 51.4256H9.49643V53.2034H19.5544V51.4256ZM8.65607 52.0247L0.69844 75.0989L2.37915 75.6785L10.3368 52.6043L8.65607 52.0247ZM1.5388 76.2776H8.34272V74.4997H1.5388V76.2776ZM9.19808 75.6306L10.4701 71.1341L8.7594 70.6502L7.48736 75.1467L9.19808 75.6306ZM9.61476 71.7811H18.874V70.0032H9.61476V71.7811ZM18.028 71.1649L19.4775 75.6614L21.1696 75.1159L19.7201 70.6194L18.028 71.1649ZM20.3235 76.2776H27.4233V74.4997H20.3235V76.2776ZM28.2646 75.1018L20.3958 52.0276L18.7131 52.6014L26.5819 75.6756L28.2646 75.1018ZM11.8991 66.1685L15.1236 57.353L13.4539 56.7423L10.2295 65.5578L11.8991 66.1685ZM14.2888 57.9366H14.5254V56.1587H14.2888V57.9366ZM13.6827 57.3305L16.6409 66.146L18.3264 65.5804L15.3682 56.7649L13.6827 57.3305ZM17.4836 64.9743H11.0643V66.7521H17.4836V64.9743ZM33.9598 57.6393V56.7504H33.0751L33.0709 57.6351L33.9598 57.6393ZM33.9598 70.0639L33.0709 70.0681L33.0751 70.9528H33.9598V70.0639ZM33.9303 63.8516L33.0413 63.8473L33.0413 63.8558L33.9303 63.8516ZM27.7476 75.3887H26.8586V76.2776H27.7476V75.3887ZM27.7476 52.3145V51.4256H26.8586V52.3145H27.7476ZM33.9598 58.5282H39.0184V56.7504H33.9598V58.5282ZM39.0184 58.5282C40.0074 58.5282 40.7065 58.5761 41.2199 58.7032C41.7052 58.8234 41.9673 59 42.1488 59.2356C42.3504 59.4974 42.5283 59.9305 42.6447 60.7043C42.7604 61.4741 42.8035 62.4912 42.8035 63.8516H44.5813C44.5813 62.4756 44.5393 61.3479 44.4027 60.4399C44.2668 59.5359 44.0249 58.758 43.5573 58.1507C43.0694 57.5173 42.4126 57.167 41.6472 56.9775C40.9098 56.7949 40.0262 56.7504 39.0184 56.7504V58.5282ZM42.8035 63.8516C42.8035 65.1969 42.7605 66.2065 42.6447 66.9734C42.5284 67.7441 42.3505 68.1812 42.1465 68.4483C41.7769 68.9323 41.0718 69.1749 39.0184 69.1749V70.9528C40.9586 70.9528 42.5905 70.7961 43.5595 69.5273C44.0248 68.918 44.2666 68.1404 44.4027 67.2387C44.5393 66.3334 44.5813 65.2131 44.5813 63.8516H42.8035ZM39.0184 69.1749H33.9598V70.9528H39.0184V69.1749ZM34.8488 70.0596L34.8192 63.8474L33.0413 63.8558L33.0709 70.0681L34.8488 70.0596ZM34.8192 63.8558L34.8488 57.6435L33.0709 57.6351L33.0413 63.8474L34.8192 63.8558ZM27.7476 76.2776H39.6692V74.4997H27.7476V76.2776ZM39.6692 76.2776C41.8925 76.2776 43.735 76.1805 45.2339 75.8568C46.7473 75.53 47.9755 74.9585 48.902 73.9648C49.822 72.9779 50.3583 71.6665 50.6719 70.027C50.9846 68.3927 51.0894 66.357 51.0894 63.8516H49.3116C49.3116 66.3308 49.2057 68.2295 48.9257 69.693C48.6468 71.1514 48.2087 72.1012 47.6016 72.7524C47.0009 73.3968 46.149 73.8404 44.8586 74.119C43.5537 74.4008 41.8685 74.4997 39.6692 74.4997V76.2776ZM51.0894 63.8516C51.0894 61.3462 50.9846 59.3104 50.6719 57.6761C50.3583 56.0367 49.822 54.7253 48.902 53.7384C47.9755 52.7446 46.7473 52.1732 45.2339 51.8463C43.735 51.5226 41.8925 51.4256 39.6692 51.4256V53.2034C41.8685 53.2034 43.5537 53.3023 44.8586 53.5841C46.149 53.8628 47.0009 54.3064 47.6016 54.9507C48.2087 55.602 48.6468 56.5518 48.9257 58.0102C49.2057 59.4737 49.3116 61.3724 49.3116 63.8516H51.0894ZM39.6692 51.4256H27.7476V53.2034H39.6692V51.4256ZM26.8586 52.3145V75.3887H28.6365V52.3145H26.8586ZM57.4865 57.6393V56.7504H56.6018L56.5976 57.6351L57.4865 57.6393ZM57.4865 70.0639L56.5976 70.0681L56.6018 70.9528H57.4865V70.0639ZM57.457 63.8516L56.568 63.8473L56.5681 63.8558L57.457 63.8516ZM51.2743 75.3887H50.3853V76.2776H51.2743V75.3887ZM51.2743 52.3145V51.4256H50.3853V52.3145H51.2743ZM57.4865 58.5282H62.5451V56.7504H57.4865V58.5282ZM62.5451 58.5282C63.5341 58.5282 64.2332 58.5761 64.7466 58.7032C65.2319 58.8234 65.494 59 65.6755 59.2356C65.8771 59.4974 66.055 59.9305 66.1714 60.7043C66.2872 61.4741 66.3302 62.4912 66.3302 63.8516H68.108C68.108 62.4756 68.066 61.3479 67.9295 60.4399C67.7935 59.5359 67.5517 58.758 67.084 58.1507C66.5961 57.5173 65.9394 57.167 65.1739 56.9775C64.4365 56.7949 63.5529 56.7504 62.5451 56.7504V58.5282ZM66.3302 63.8516C66.3302 65.1969 66.2872 66.2065 66.1714 66.9734C66.0551 67.7441 65.8772 68.1812 65.6733 68.4483C65.3036 68.9323 64.5985 69.1749 62.5451 69.1749V70.9528C64.4853 70.9528 66.1172 70.7961 67.0862 69.5273C67.5516 68.918 67.7933 68.1404 67.9294 67.2387C68.066 66.3334 68.108 65.2131 68.108 63.8516H66.3302ZM62.5451 69.1749H57.4865V70.9528H62.5451V69.1749ZM58.3755 70.0596L58.3459 63.8474L56.5681 63.8558L56.5976 70.0681L58.3755 70.0596ZM58.3459 63.8558L58.3755 57.6435L56.5976 57.6351L56.5681 63.8474L58.3459 63.8558ZM51.2743 76.2776H63.1959V74.4997H51.2743V76.2776ZM63.1959 76.2776C65.4192 76.2776 67.2617 76.1805 68.7606 75.8568C70.274 75.53 71.5022 74.9585 72.4287 73.9648C73.3487 72.9779 73.885 71.6665 74.1986 70.027C74.5113 68.3927 74.6161 66.357 74.6161 63.8516H72.8383C72.8383 66.3308 72.7324 68.2295 72.4525 69.693C72.1735 71.1514 71.7354 72.1012 71.1283 72.7524C70.5276 73.3968 69.6758 73.8404 68.3853 74.119C67.0804 74.4008 65.3952 74.4997 63.1959 74.4997V76.2776ZM74.6161 63.8516C74.6161 61.3462 74.5113 59.3104 74.1986 57.6761C73.885 56.0367 73.3487 54.7253 72.4287 53.7384C71.5022 52.7446 70.274 52.1732 68.7606 51.8463C67.2617 51.5226 65.4192 51.4256 63.1959 51.4256V53.2034C65.3952 53.2034 67.0804 53.3023 68.3853 53.5841C69.6758 53.8628 70.5276 54.3064 71.1283 54.9507C71.7354 55.602 72.1735 56.5518 72.4525 58.0102C72.7324 59.4737 72.8383 61.3724 72.8383 63.8516H74.6161ZM63.1959 51.4256H51.2743V53.2034H63.1959V51.4256ZM50.3853 52.3145V75.3887H52.1632V52.3145H50.3853ZM88.7047 75.3887H87.8158V76.2776H88.7047V75.3887ZM94.917 75.3887V76.2776H95.8059V75.3887H94.917ZM94.917 57.3435V56.4546H94.028V57.3435H94.917ZM102.046 57.3435V58.2324H102.935V57.3435H102.046ZM102.046 52.3145H102.935V51.4256H102.046V52.3145ZM81.6345 52.3145V51.4256H80.7456V52.3145H81.6345ZM81.6345 57.3435H80.7456V58.2324H81.6345V57.3435ZM88.7047 57.3435H89.5936V56.4546H88.7047V57.3435ZM88.7047 76.2776H94.917V74.4997H88.7047V76.2776ZM95.8059 75.3887V57.3435H94.028V75.3887H95.8059ZM94.917 58.2324H102.046V56.4546H94.917V58.2324ZM102.935 57.3435V52.3145H101.157V57.3435H102.935ZM102.046 51.4256H81.6345V53.2034H102.046V51.4256ZM80.7456 52.3145V57.3435H82.5234V52.3145H80.7456ZM81.6345 58.2324H88.7047V56.4546H81.6345V58.2324ZM87.8158 57.3435V75.3887H89.5936V57.3435H87.8158ZM114.66 57.8774C115.923 57.8774 116.857 57.9446 117.563 58.1107C118.251 58.2729 118.664 58.516 118.945 58.8346C119.236 59.1636 119.469 59.6651 119.622 60.4943C119.776 61.3272 119.835 62.4149 119.835 63.8516H121.613C121.613 62.3892 121.554 61.1695 121.371 60.172C121.186 59.1707 120.863 58.3189 120.277 57.6569C119.683 56.9845 118.899 56.599 117.97 56.3802C117.059 56.1655 115.956 56.0996 114.66 56.0996V57.8774ZM119.835 63.8516C119.835 65.2883 119.776 66.376 119.622 67.2089C119.469 68.038 119.236 68.5395 118.945 68.8686C118.664 69.1872 118.251 69.4303 117.563 69.5924C116.857 69.7585 115.923 69.8257 114.66 69.8257V71.6036C115.956 71.6036 117.059 71.5377 117.97 71.3229C118.899 71.1042 119.683 70.7187 120.277 70.0463C120.863 69.3843 121.186 68.5324 121.371 67.5312C121.554 66.5336 121.613 65.3139 121.613 63.8516H119.835ZM114.66 69.8257C113.397 69.8257 112.462 69.7585 111.757 69.5924C111.069 69.4303 110.656 69.1872 110.374 68.8686C110.084 68.5395 109.85 68.038 109.698 67.2089C109.544 66.376 109.484 65.2883 109.484 63.8516H107.707C107.707 65.3139 107.765 66.5336 107.949 67.5312C108.134 68.5324 108.457 69.3843 109.043 70.0463C109.637 70.7187 110.421 71.1042 111.349 71.3229C112.261 71.5377 113.364 71.6036 114.66 71.6036V69.8257ZM109.484 63.8516C109.484 62.4149 109.544 61.3272 109.698 60.4943C109.85 59.6651 110.084 59.1636 110.374 58.8346C110.656 58.516 111.069 58.2729 111.757 58.1107C112.462 57.9446 113.397 57.8774 114.66 57.8774V56.0996C113.364 56.0996 112.261 56.1655 111.349 56.3802C110.421 56.599 109.637 56.9845 109.043 57.6569C108.457 58.3189 108.134 59.1707 107.949 60.172C107.765 61.1695 107.707 62.3892 107.707 63.8516H109.484ZM101.199 63.8516C101.199 66.3748 101.322 68.4504 101.695 70.1328C102.07 71.8281 102.713 73.1845 103.792 74.2043C104.866 75.2197 106.285 75.8176 108.055 76.1678C109.818 76.5166 111.998 76.6326 114.66 76.6326V74.8547C112.026 74.8547 109.987 74.7378 108.4 74.4237C106.82 74.1111 105.758 73.6163 105.013 72.9122C104.273 72.2125 103.757 71.2227 103.43 69.7481C103.101 68.2606 102.976 66.3425 102.976 63.8516H101.199ZM114.66 76.6326C117.322 76.6326 119.502 76.5166 121.265 76.1678C123.035 75.8176 124.454 75.2197 125.528 74.2043C126.607 73.1845 127.249 71.8281 127.625 70.1328C127.998 68.4504 128.121 66.3748 128.121 63.8516H126.343C126.343 66.3425 126.219 68.2606 125.889 69.7481C125.563 71.2227 125.047 72.2125 124.307 72.9122C123.562 73.6163 122.5 74.1111 120.92 74.4237C119.332 74.7378 117.293 74.8547 114.66 74.8547V76.6326ZM128.121 63.8516C128.121 61.3283 127.998 59.2528 127.625 57.5704C127.249 55.875 126.607 54.5186 125.528 53.4989C124.454 52.4834 123.035 51.8855 121.265 51.5354C119.502 51.1866 117.322 51.0706 114.66 51.0706V52.8484C117.293 52.8484 119.332 52.9654 120.92 53.2794C122.5 53.5921 123.562 54.0869 124.307 54.7909C125.047 55.4906 125.563 56.4805 125.889 57.9551C126.219 59.4426 126.343 61.3606 126.343 63.8516H128.121ZM114.66 51.0706C111.998 51.0706 109.818 51.1866 108.055 51.5354C106.285 51.8855 104.866 52.4834 103.792 53.4989C102.713 54.5186 102.07 55.875 101.695 57.5704C101.322 59.2528 101.199 61.3283 101.199 63.8516H102.976C102.976 61.3606 103.101 59.4426 103.43 57.9551C103.757 56.4805 104.273 55.4906 105.013 54.7909C105.758 54.0869 106.82 53.5921 108.4 53.2794C109.987 52.9654 112.026 52.8484 114.66 52.8484V51.0706ZM160.582 65.5969L161.471 65.5908L161.465 64.708H160.582V65.5969ZM154.074 65.5969V64.708H153.173L153.185 65.6091L154.074 65.5969ZM154.074 62.0766L153.185 62.0644L153.173 62.9656H154.074V62.0766ZM160.582 62.0766V62.9656H161.465L161.471 62.0828L160.582 62.0766ZM160.582 64.708H154.074V66.4859H160.582V64.708ZM153.185 65.6091C153.2 66.6713 153.152 67.4454 153.021 68.0219C152.894 68.5806 152.702 68.8968 152.462 69.1085C152.21 69.3306 151.81 69.521 151.115 69.6479C150.416 69.7754 149.498 69.8257 148.276 69.8257V71.6036C149.524 71.6036 150.573 71.5541 151.434 71.3969C152.298 71.2391 153.05 70.9598 153.637 70.4424C154.236 69.9146 154.572 69.2212 154.755 68.4154C154.933 67.6274 154.978 66.6821 154.963 65.5848L153.185 65.6091ZM148.276 69.8257C145.748 69.8257 144.696 69.523 144.143 68.8785C143.861 68.5498 143.634 68.0463 143.485 67.2136C143.336 66.3784 143.278 65.2888 143.278 63.8516H141.5C141.5 65.3135 141.557 66.5312 141.735 67.5265C141.913 68.5241 142.226 69.3741 142.794 70.0363C143.942 71.3739 145.834 71.6036 148.276 71.6036V69.8257ZM143.278 63.8516C143.278 62.4144 143.336 61.3248 143.485 60.4896C143.634 59.6568 143.861 59.1534 144.143 58.8247C144.696 58.1802 145.748 57.8774 148.276 57.8774V56.0996C145.834 56.0996 143.942 56.3293 142.794 57.6668C142.226 58.3291 141.913 59.179 141.735 60.1767C141.557 61.1719 141.5 62.3897 141.5 63.8516H143.278ZM148.276 57.8774C149.498 57.8774 150.417 57.9278 151.115 58.0549C151.811 58.1815 152.211 58.3713 152.464 58.5925C152.704 58.8028 152.895 59.1163 153.021 59.6699C153.152 60.2417 153.2 61.0098 153.185 62.0644L154.963 62.0889C154.978 60.9988 154.933 60.0585 154.754 59.2741C154.571 58.4716 154.235 57.7811 153.636 57.2556C153.049 56.7409 152.297 56.4629 151.433 56.3058C150.572 56.1491 149.524 56.0996 148.276 56.0996V57.8774ZM154.074 62.9656H160.582V61.1877H154.074V62.9656ZM161.471 62.0828C161.5 57.8597 161.073 54.8994 158.932 53.1369C157.876 52.2674 156.488 51.7623 154.763 51.4661C153.038 51.17 150.899 51.0706 148.276 51.0706V52.8484C150.874 52.8484 152.891 52.9487 154.462 53.2183C156.033 53.4879 157.08 53.9147 157.802 54.5095C159.219 55.6756 159.723 57.7739 159.693 62.0705L161.471 62.0828ZM148.276 51.0706C145.651 51.0706 143.499 51.1866 141.759 51.5358C140.011 51.8867 138.608 52.486 137.547 53.5032C136.483 54.5238 135.85 55.8798 135.481 57.573C135.113 59.2542 134.992 61.3286 134.992 63.8516H136.77C136.77 61.3603 136.892 59.4412 137.218 57.9524C137.54 56.4757 138.049 55.4854 138.778 54.7866C139.51 54.0844 140.554 53.591 142.109 53.279C143.671 52.9654 145.679 52.8484 148.276 52.8484V51.0706ZM134.992 63.8516C134.992 66.3745 135.113 68.449 135.481 70.1301C135.85 71.8234 136.483 73.1793 137.547 74.1999C138.608 75.2172 140.011 75.8165 141.759 76.1673C143.499 76.5166 145.651 76.6326 148.276 76.6326V74.8547C145.679 74.8547 143.671 74.7378 142.109 74.4242C140.554 74.1122 139.51 73.6188 138.778 72.9166C138.049 72.2177 137.54 71.2274 137.218 69.7508C136.892 68.262 136.77 66.3428 136.77 63.8516H134.992ZM148.276 76.6326C150.898 76.6326 153.038 76.5331 154.763 76.2365C156.488 75.9399 157.877 75.4337 158.933 74.5618C161.073 72.7955 161.5 69.8281 161.471 65.5908L159.693 65.6031C159.723 69.915 159.218 72.021 157.801 73.1907C157.079 73.7869 156.032 74.2144 154.462 74.4844C152.891 74.7545 150.874 74.8547 148.276 74.8547V76.6326ZM178.619 52.3145L179.461 52.0276L179.255 51.4256H178.619V52.3145ZM168.561 52.3145V51.4256H167.927L167.721 52.0247L168.561 52.3145ZM160.604 75.3887L159.763 75.0989L159.357 76.2776H160.604V75.3887ZM167.407 75.3887V76.2776H168.08L168.263 75.6306L167.407 75.3887ZM168.68 70.8922V70.0032H168.007L167.824 70.6502L168.68 70.8922ZM177.939 70.8922L178.785 70.6194L178.586 70.0032H177.939V70.8922ZM179.388 75.3887L178.542 75.6614L178.741 76.2776H179.388V75.3887ZM186.488 75.3887V76.2776H187.73L187.329 75.1018L186.488 75.3887ZM170.129 65.8632L169.294 65.5578L168.857 66.7521H170.129V65.8632ZM173.354 57.0477V56.1587H172.732L172.519 56.7423L173.354 57.0477ZM173.59 57.0477L174.433 56.7649L174.23 56.1587H173.59V57.0477ZM176.548 65.8632V66.7521H177.784L177.391 65.5804L176.548 65.8632ZM178.619 51.4256H168.561V53.2034H178.619V51.4256ZM167.721 52.0247L159.763 75.0989L161.444 75.6785L169.402 52.6043L167.721 52.0247ZM160.604 76.2776H167.407V74.4997H160.604V76.2776ZM168.263 75.6306L169.535 71.1341L167.824 70.6502L166.552 75.1467L168.263 75.6306ZM168.68 71.7811H177.939V70.0032H168.68V71.7811ZM177.093 71.1649L178.542 75.6614L180.234 75.1159L178.785 70.6194L177.093 71.1649ZM179.388 76.2776H186.488V74.4997H179.388V76.2776ZM187.329 75.1018L179.461 52.0276L177.778 52.6014L185.647 75.6756L187.329 75.1018ZM170.964 66.1685L174.188 57.353L172.519 56.7423L169.294 65.5578L170.964 66.1685ZM173.354 57.9366H173.59V56.1587H173.354V57.9366ZM172.747 57.3305L175.706 66.146L177.391 65.5804L174.433 56.7649L172.747 57.3305ZM176.548 64.9743H170.129V66.7521H176.548V64.9743ZM186.812 52.3145V51.4256H185.923V52.3145H186.812ZM186.812 75.3887H185.923V76.2776H186.812V75.3887ZM193.025 75.3887V76.2776H193.914V75.3887H193.025ZM193.025 67.8452V66.9563H192.136V67.8452H193.025ZM202.343 75.3887L201.553 75.7958L201.801 76.2776H202.343V75.3887ZM209.147 75.3887V76.2776H210.036V75.3887H209.147ZM209.147 75.1224H210.036V74.7845L209.811 74.5319L209.147 75.1224ZM204.029 65.3899L203.833 64.5229L203.832 66.2567L204.029 65.3899ZM193.025 63.112H192.136V64.001H193.025V63.112ZM193.025 57.3435V56.4546H192.136V57.3435H193.025ZM200.598 51.4256H186.812V53.2034H200.598V51.4256ZM185.923 52.3145V75.3887H187.701V52.3145H185.923ZM186.812 76.2776H193.025V74.4997H186.812V76.2776ZM193.914 75.3887V67.8452H192.136V75.3887H193.914ZM193.025 68.7341H199.119V66.9563H193.025V68.7341ZM199.119 68.7341C200.067 68.7341 200.347 68.9034 200.478 69.062C200.66 69.2822 200.833 69.7955 200.833 71.0992H202.611C202.611 69.7997 202.473 68.686 201.849 67.93C201.174 67.1124 200.153 66.9563 199.119 66.9563V68.7341ZM200.833 71.0992C200.833 73.1562 200.939 74.6047 201.553 75.7958L203.133 74.9816C202.741 74.2202 202.611 73.1838 202.611 71.0992H200.833ZM202.343 76.2776H209.147V74.4997H202.343V76.2776ZM210.036 75.3887V75.1224H208.258V75.3887H210.036ZM209.811 74.5319C209.491 74.1718 209.238 73.5841 209.073 72.7257C208.911 71.8782 208.853 70.8555 208.853 69.7089H207.075C207.075 70.8992 207.134 72.0508 207.327 73.0596C207.518 74.0575 207.856 75.0081 208.483 75.713L209.811 74.5319ZM208.853 69.7089C208.853 68.1625 208.483 66.9654 207.599 66.087C206.755 65.247 205.56 64.8262 204.226 64.523L203.832 66.2567C205.102 66.5452 205.874 66.8787 206.346 67.3477C206.779 67.7784 207.075 68.445 207.075 69.7089H208.853ZM204.226 66.2568C205.862 65.8863 207.144 65.3279 208 64.3641C208.874 63.3798 209.178 62.1167 209.178 60.6271H207.4C207.4 61.8887 207.142 62.652 206.67 63.1838C206.18 63.7361 205.332 64.1834 203.833 64.5229L204.226 66.2568ZM209.178 60.6271V59.7396H207.4V60.6271H209.178ZM209.178 59.7396C209.178 58.1578 209.107 56.8335 208.876 55.749C208.643 54.6529 208.235 53.7364 207.514 53.0372C206.796 52.3406 205.857 51.9468 204.732 51.7212C203.616 51.4971 202.246 51.4256 200.598 51.4256V53.2034C202.218 53.2034 203.444 53.2761 204.383 53.4643C205.313 53.651 205.889 53.9376 206.276 54.3134C206.661 54.6865 206.949 55.2343 207.137 56.1184C207.327 57.0141 207.4 58.1858 207.4 59.7396H209.178ZM193.914 63.112V57.3435H192.136V63.112H193.914ZM193.025 58.2324H199V56.4546H193.025V58.2324ZM199 58.2324C199.634 58.2324 200.08 58.264 200.402 58.3296C200.717 58.3938 200.845 58.4776 200.905 58.5342C200.96 58.5858 201.036 58.6871 201.095 58.9499C201.158 59.2266 201.188 59.6161 201.188 60.1834H202.966C202.966 59.5822 202.937 59.0324 202.829 58.5575C202.719 58.0687 202.513 57.6062 202.124 57.2399C201.74 56.8786 201.262 56.6906 200.757 56.5876C200.257 56.4858 199.668 56.4546 199 56.4546V58.2324ZM201.188 60.1834C201.188 60.7738 201.158 61.1822 201.094 61.4741C201.033 61.7538 200.954 61.8634 200.897 61.9182C200.837 61.9762 200.711 62.0604 200.399 62.1251C200.079 62.1914 199.634 62.2231 199 62.2231V64.001C199.668 64.001 200.258 63.9698 200.76 63.866C201.268 63.7606 201.749 63.5675 202.133 63.1965C202.52 62.8224 202.722 62.3514 202.83 61.8546C202.937 61.3699 202.966 60.8059 202.966 60.1834H201.188ZM199 62.2231H193.025V64.001H199V62.2231ZM216.114 75.3887H215.225V76.2776H216.114V75.3887ZM222.326 75.3887V76.2776H223.215V75.3887H222.326ZM222.326 57.3435V56.4546H221.437V57.3435H222.326ZM229.455 57.3435V58.2324H230.344V57.3435H229.455ZM229.455 52.3145H230.344V51.4256H229.455V52.3145ZM209.044 52.3145V51.4256H208.155V52.3145H209.044ZM209.044 57.3435H208.155V58.2324H209.044V57.3435ZM216.114 57.3435H217.003V56.4546H216.114V57.3435ZM216.114 76.2776H222.326V74.4997H216.114V76.2776ZM223.215 75.3887V57.3435H221.437V75.3887H223.215ZM222.326 58.2324H229.455V56.4546H222.326V58.2324ZM230.344 57.3435V52.3145H228.567V57.3435H230.344ZM229.455 51.4256H209.044V53.2034H229.455V51.4256ZM208.155 52.3145V57.3435H209.933V52.3145H208.155ZM209.044 58.2324H216.114V56.4546H209.044V58.2324ZM215.225 57.3435V75.3887H217.003V57.3435H215.225Z" fill="white"/>
</svg>
